<?xml version="1.0" encoding="UTF-8" standalone="no"?>
<!-- Created with Inkscape (http://www.inkscape.org/) -->

<svg
   xmlns:dc="http://purl.org/dc/elements/1.1/"
   xmlns:cc="http://creativecommons.org/ns#"
   xmlns:rdf="http://www.w3.org/1999/02/22-rdf-syntax-ns#"
   xmlns:svg="http://www.w3.org/2000/svg"
   xmlns="http://www.w3.org/2000/svg"
   xmlns:sodipodi="http://sodipodi.sourceforge.net/DTD/sodipodi-0.dtd"
   xmlns:inkscape="http://www.inkscape.org/namespaces/inkscape"
   id="svg3899"
   version="1.1"
   inkscape:version="0.48.2 r9819"
   width="557"
   height="232"
   sodipodi:docname="cockrell_school_logo_white.svg">
  <metadata
     id="metadata3905">
    <rdf:RDF>
      <cc:Work
         rdf:about="">
        <dc:format>image/svg+xml</dc:format>
        <dc:type
           rdf:resource="http://purl.org/dc/dcmitype/StillImage" />
        <dc:title></dc:title>
      </cc:Work>
    </rdf:RDF>
  </metadata>
  <defs
     id="defs3903" />
  <sodipodi:namedview
     pagecolor="#ffffff"
     bordercolor="#666666"
     borderopacity="1"
     objecttolerance="10"
     gridtolerance="10"
     guidetolerance="10"
     inkscape:pageopacity="0"
     inkscape:pageshadow="2"
     inkscape:window-width="1239"
     inkscape:window-height="756"
     id="namedview3901"
     showgrid="false"
     inkscape:zoom="1.819376"
     inkscape:cx="304.5"
     inkscape:cy="129.5"
     inkscape:window-x="0"
     inkscape:window-y="0"
     inkscape:window-maximized="1"
     inkscape:current-layer="svg3899"
     borderlayer="false" />
  <path
     style="fill:#ffffff"
     d="m 2.1541687,116.39194 c 0,-37.666676 0,-75.333344 0,-113.000012 35.4046583,0 70.8093153,0 106.2139813,0 -22.402476,75.27721 -44.473037,150.656812 -66.713981,225.983632 -13.166667,0.005 -26.333333,0.0107 -39.5000003,0.016 0,-37.66629 0,-75.33456 0,-112.99962 z M 84.813774,215.60142 C 150.28169,165.98803 215.63894,115.11561 288.59646,76.832946 314.41477,63.865192 343.8011,55.872671 372.77225,57.956301 c 33.34352,1.165069 68.14126,21.36011 77.59216,54.601339 4.64524,12.63959 3.00892,26.3381 2.9093,39.49041 -3.81278,19.23711 -12.69735,37.20502 -24.69678,52.64958 -6.61813,9.15105 -15.55635,16.35592 -23.14328,24.6943 -112.82009,0 -225.64017,0 -338.460266,0 5.9468,-4.59684 11.89359,-9.19367 17.84039,-13.79051 z m 354.340396,8.2162 c 19.45825,-8.70141 36.70233,-21.87487 50.73879,-37.83818 15.75573,-18.90291 25.50601,-42.91778 27.38139,-67.40141 -0.49085,-16.96735 0.3289,-34.290409 -7.33692,-50.038819 C 503.8506,51.166761 492.5573,36.125946 478.89792,23.948636 471.5398,15.006968 460.68196,10.441984 451.75417,3.391928 c 34.13333,0 68.26667,0 102.4,0 0,75.333331 0,150.666672 0,226.000002 -42.16667,-0.006 -84.33333,-0.012 -126.5,-0.018 3.83322,-1.85217 7.66733,-3.70379 11.5,-5.55631 z M 143.43386,103.14635 c 10.47006,-33.196687 20.25163,-66.608848 30.88337,-99.754422 40.11231,0.04263 80.22463,0.08527 120.33694,0.1279 C 237.2804,26.048947 190.08045,66.552754 142.77971,104.89193 l 0.41862,-1.11708 0.23553,-0.62851 0,1e-5 z"
     id="path3909"
     inkscape:connector-curvature="0" />
</svg>
